<svg xmlns="http://www.w3.org/2000/svg" xmlns:xlink="http://www.w3.org/1999/xlink" version="1.1" x="0px" y="0px" viewBox="0 0 65 81.25" enable-background="new 0 0 65 65" xml:space="preserve"><g><path d="M63.4,47.6c-0.4-0.9-1.1-1.6-2-2c-0.9-0.4-1.9-0.4-2.8,0l-13.5,6c0-0.2,0.1-0.4,0.1-0.6c0-1.9-1.5-3.4-3.4-3.4v0h0   c0,0,0,0-0.1,0v0h-9.3l-7.1-3.3c-1.5-0.7-3.1-1.1-4.7-1.1h-5.5v-2.5H1.3v1.5h12.3v19.3H4.1V63h11v-2.5h4.1l13,4.3   c0.9,0.3,1.8,0.4,2.7,0.4c1.4,0,2.7-0.3,3.9-0.9l22.6-11.8C63.3,51.7,64.2,49.5,63.4,47.6z M60.8,51.1L38.1,63   c-1.7,0.9-3.7,1-5.4,0.4L19.6,59l-4.5,0V44.7h5.5c1.4,0,2.8,0.3,4.1,0.9l7.4,3.5h9.7c1.1,0,1.9,0.9,1.9,1.9c0,1.1-0.9,2-2,2H30.3   l-0.1,0c-1,0.2-3,1.1-3,3.1h1.5c0-1.2,1.4-1.6,1.7-1.6h11.4v0c0.6,0,1.1-0.2,1.6-0.4l0,0l15.8-7c1.1-0.5,2.4,0.1,2.9,1.2   C62.5,49.3,61.9,50.6,60.8,51.1z"/><rect x="9.5" y="57.2" width="1.5" height="1.5"/><rect x="6.3" y="57.2" width="1.5" height="1.5"/><path d="M31.1,39.6c3.3,2.3,7.2,3.6,11.2,3.6c4,0,7.9-1.2,11.2-3.6c5.8-4.2,8.8-11.6,7.5-19L57.6,1.3h-7.4l3.6,20.5   c0.8,4.6-1,9.3-4.6,11.9c-2,1.5-4.5,2.2-7,2.2c-2.5,0-4.9-0.8-7-2.2c-3.6-2.6-5.4-7.2-4.6-11.9l3.6-20.5H27l-3.4,19.2   C22.3,27.9,25.3,35.4,31.1,39.6z M25.1,20.8l3.2-18h4.3l-3.3,18.7c-0.9,5.2,1.1,10.4,5.2,13.3c2.3,1.6,5,2.5,7.8,2.5   c2.8,0,5.6-0.9,7.9-2.5c4-2.9,6.1-8.1,5.2-13.3L52,2.8h4.3l3.2,18c1.2,6.8-1.5,13.7-6.9,17.5c-3,2.2-6.6,3.3-10.3,3.3   c-3.7,0-7.3-1.1-10.3-3.3C26.6,34.5,23.9,27.6,25.1,20.8z"/><path d="M34.4,20.4c0.2,0.2,0.5,0.3,0.8,0.3l5.2-1.5l-3.4,12c-0.1,0.4,0.1,0.7,0.4,0.9c0.1,0,0.2,0.1,0.3,0.1   c0.2,0,0.5-0.1,0.6-0.3l11.8-18.4c0.2-0.2,0.2-0.6,0-0.8c-0.2-0.2-0.4-0.4-0.7-0.3l-6.6,0.9l3.3-12.5c0.1-0.4-0.1-0.7-0.4-0.9   c-0.4-0.1-0.8,0-0.9,0.3L34.4,19.6C34.2,19.9,34.2,20.2,34.4,20.4z M43.2,6.4l-2,7.5c-0.1,0.2,0,0.5,0.2,0.7   c0.2,0.2,0.4,0.3,0.7,0.2l6.1-0.9l-8.2,12.8l2.4-8.5c0.1-0.3,0-0.5-0.2-0.7c-0.1-0.1-0.3-0.2-0.5-0.2c-0.1,0-0.1,0-0.2,0l-4.8,1.4   L43.2,6.4z"/></g><text x="0" y="80" fill="#000000" font-size="5px" font-weight="bold" font-family="'Helvetica Neue', Helvetica, Arial-Unicode, Arial, Sans-serif">Created by Creative Stall</text><text x="0" y="85" fill="#000000" font-size="5px" font-weight="bold" font-family="'Helvetica Neue', Helvetica, Arial-Unicode, Arial, Sans-serif">from the Noun Project</text></svg>